<svg width="691" height="593" viewBox="0 0 691 593" fill="none" xmlns="http://www.w3.org/2000/svg">
<g filter="url(#filter0_d_335_3)">
<path fill-rule="evenodd" clip-rule="evenodd" d="M295.864 2.88032C309.434 2.16821 333.736 1.35041 364.634 1.08648C424.996 2.29096 463.178 1.58313 517.198 0.581688C527.294 0.394525 537.943 0.197107 549.394 0C569.606 0.790185 580.683 3.00859 600.025 7.30436C629.114 18.3632 640.389 27.3863 653.765 48.1647C667.712 74.3964 667.872 92.4 658.651 125.888C641.991 170.774 629.083 204.429 614.464 239.832C598.825 278.632 571.835 344.247 546.657 398.994C503.244 500.734 402.295 572.045 284.69 572.045C127.46 572.045 0 444.585 0 287.355C0 130.125 127.46 2.66504 284.69 2.66504C288.432 2.66504 292.157 2.73724 295.864 2.88032ZM516.972 287.355C516.972 415.641 412.976 519.637 284.69 519.637C156.404 519.637 52.4077 415.641 52.4077 287.355C52.4077 159.069 156.404 55.0732 284.69 55.0732C412.976 55.0732 516.972 159.069 516.972 287.355ZM621.693 160.535C608.021 168.413 591.029 172.352 570.716 172.352C548.19 172.352 530.417 166.134 517.396 153.699C504.44 141.199 497.962 124.012 497.962 102.137C497.962 80.1315 505.059 62.1953 519.251 48.3281C533.444 34.4609 552.324 27.5273 575.892 27.5273C590.736 27.5273 603.822 29.5781 615.15 33.6797V63.2695C604.343 57.0195 591.126 53.8945 575.501 53.8945C562.415 53.8945 551.738 58.1589 543.47 66.6875C535.267 75.151 531.165 86.4792 531.165 100.672C531.165 115.06 534.844 126.193 542.201 134.07C549.622 141.948 559.616 145.887 572.181 145.887C579.733 145.887 585.723 144.812 590.15 142.664V115.32H562.122V90.125H621.693V160.535ZM313.111 475.185L336.111 389.685L279.611 190.685C278.944 188.351 278.611 186.018 278.611 183.685C278.611 177.018 282.444 171.851 290.111 168.185C295.778 165.185 298.611 160.851 298.611 155.185C298.611 149.851 296.278 146.018 291.611 143.685C288.611 142.351 282.111 141.685 272.111 141.685H163.611C147.944 141.685 140.111 146.518 140.111 156.185C140.111 162.185 144.278 166.851 152.611 170.185C156.944 171.851 160.111 176.185 162.111 183.185L248.611 475.185H313.111ZM332.611 308.685L345.611 354.685L384.611 211.685C388.278 198.018 392.778 188.185 398.111 182.185C403.778 176.185 412.278 171.018 423.611 166.685C429.278 163.685 432.111 159.685 432.111 154.685C432.111 146.018 425.111 141.685 411.111 141.685H351.611C337.944 141.685 331.111 146.351 331.111 155.685C331.111 161.351 334.111 165.351 340.111 167.685C348.111 170.685 353.611 173.685 356.611 176.685C360.278 180.685 362.111 186.685 362.111 194.685C362.111 198.685 361.611 202.518 360.611 206.185L332.611 308.685Z" fill="#FF6000"/>
</g>
<defs>
<filter id="filter0_d_335_3" x="0" y="0" width="691" height="592.045" filterUnits="userSpaceOnUse" color-interpolation-filters="sRGB">
<feFlood flood-opacity="0" result="BackgroundImageFix"/>
<feColorMatrix in="SourceAlpha" type="matrix" values="0 0 0 0 0 0 0 0 0 0 0 0 0 0 0 0 0 0 127 0" result="hardAlpha"/>
<feOffset dx="22" dy="16"/>
<feGaussianBlur stdDeviation="2"/>
<feComposite in2="hardAlpha" operator="out"/>
<feColorMatrix type="matrix" values="0 0 0 0 0 0 0 0 0 0 0 0 0 0 0 0 0 0 0.25 0"/>
<feBlend mode="normal" in2="BackgroundImageFix" result="effect1_dropShadow_335_3"/>
<feBlend mode="normal" in="SourceGraphic" in2="effect1_dropShadow_335_3" result="shape"/>
</filter>
</defs>
</svg>
