<svg width="107" height="68" viewBox="0 0 107 68" fill="none" xmlns="http://www.w3.org/2000/svg">
<rect x="9.32227" y="4.47656" width="4.93017" height="60.9061" transform="rotate(-37.1803 9.32227 4.47656)" fill="#D23F3F"/>
<rect x="14" y="3.8125" width="4.08962" height="59.7412" transform="rotate(-37.1803 14 3.8125)" fill="#DB5846"/>
<rect x="12" y="5.47266" width="4.08962" height="59.7412" transform="rotate(-37.1803 12 5.47266)" fill="#BABABA"/>
<rect x="18" y="2.8125" width="4.29644" height="61.2255" transform="rotate(-37.1803 18 2.8125)" fill="#D4905F"/>
<path fill-rule="evenodd" clip-rule="evenodd" d="M0 4C0 1.79086 1.79086 0 4 0H74C76.2091 0 78 1.79086 78 4V54C78 56.2091 76.2091 58 74 58H4C1.79086 58 0 56.2091 0 54V4ZM6 6C6 5.44771 6.44772 5 7 5H71C71.5523 5 72 5.44772 72 6V48C72 48.5523 71.5523 49 71 49H7C6.44771 49 6 48.5523 6 48V6ZM39 56C40.6569 56 42 54.6569 42 53C42 51.3431 40.6569 50 39 50C37.3431 50 36 51.3431 36 53C36 54.6569 37.3431 56 39 56Z" fill="#030202"/>
<path fill-rule="evenodd" clip-rule="evenodd" d="M107 3C107 1.89543 106.105 1 105 1H86C84.8954 1 84 1.89543 84 3V66C84 67.1046 84.8954 68 86 68H105C106.105 68 107 67.1046 107 66V3ZM104 8C104 6.89543 103.105 6 102 6H89C87.8954 6 87 6.89543 87 8V60C87 61.1046 87.8954 62 89 62H102C103.105 62 104 61.1046 104 60V8Z" fill="#030202"/>
<circle cx="95.5" cy="45.5" r="7.5" fill="#492D2D"/>
<circle cx="95.5" cy="50.5" r="7.5" fill="#492D2D"/>
<circle cx="95.5" cy="47.5" r="7.5" fill="#492D2D"/>
<circle cx="95.5" cy="45.5" r="6.5" fill="url(#paint0_linear_372_3)"/>
<circle cx="95.5" cy="50.5" r="6.5" fill="url(#paint1_linear_372_3)"/>
<circle cx="95.5" cy="47.5" r="6.5" fill="url(#paint2_linear_372_3)"/>
<rect x="89" y="11" width="13" height="5" fill="black"/>
<rect x="89" y="18" width="13" height="2" fill="black"/>
<rect x="89" y="21" width="13" height="2" fill="black"/>
<defs>
<linearGradient id="paint0_linear_372_3" x1="95.5" y1="39" x2="82" y2="57" gradientUnits="userSpaceOnUse">
<stop stop-color="#D4905F"/>
<stop offset="1" stop-color="#D4905F" stop-opacity="0"/>
</linearGradient>
<linearGradient id="paint1_linear_372_3" x1="95.5" y1="44" x2="82" y2="62" gradientUnits="userSpaceOnUse">
<stop stop-color="#DB5846"/>
<stop offset="1" stop-color="#D4905F" stop-opacity="0"/>
</linearGradient>
<linearGradient id="paint2_linear_372_3" x1="95.5" y1="41" x2="82" y2="59" gradientUnits="userSpaceOnUse">
<stop stop-color="#D23F3F"/>
<stop offset="1" stop-color="#D4905F" stop-opacity="0"/>
</linearGradient>
</defs>
</svg>
