<svg width="137" height="86" viewBox="0 0 137 86" fill="none" xmlns="http://www.w3.org/2000/svg">
<g filter="url(#filter0_d_354_41)">
<path d="M27.5002 71.501L33.0002 55.001C33.3686 53.0112 34.8807 51.1264 36.5002 50.5014C37.91 52.1482 39.2329 52.5911 42.0002 53.0014C44.4136 53.2762 45.5689 53.2173 47.5002 53.0014C50.2332 52.4686 51.5324 51.8138 53.5002 50.0014H79.0002C80.5209 51.2797 81.7616 51.7985 84.5002 52.501C86.8435 52.8369 88.157 52.7961 90.5002 52.501C92.6454 52.2045 93.7193 51.7106 95.5002 50.5014C96.7877 50.7108 97.1419 51.1053 97.5002 52.0014L105.5 72.5014C106.712 76.0015 108.278 77.5088 113.5 77.501C117.717 77.8285 122 75.001 123 74.501C124 74.001 127 72.501 129 69.001C132.258 63.3001 129.691 57.4852 129 51.0014C127.929 43.2776 128 40.501 126 31.5014C120.5 13.001 122.723 19.9684 120 13.0014C117.878 9.34513 116.563 7.37553 114 4.00136C113.387 3.27417 113.061 2.96401 112.5 2.50136C110.127 1.27865 108.552 1.02077 105.5 1.00136C102.646 0.887938 101.08 0.921229 98.5002 1.50136L97.5002 3.50136C96.4846 3.72009 95.9759 3.87798 95.5002 4.50136H83.0002C82.5272 3.23682 82.1186 2.64181 81.0002 2.00136H51.5002C50.4384 2.70637 50.0096 3.32534 49.5002 4.50136H37.5002C36.4955 3.90074 35.8481 3.64699 34.5002 3.50136V2.00136C34.0322 1.85847 33.6926 1.65982 33.0002 1.50136C28.4625 0.768566 26.0411 0.761784 22.0002 1.50136C17.9464 4.11376 16.0277 6.12359 13.5002 11.0014C10.3168 18.8886 8.86546 23.4092 7.00016 31.5014L3.00016 55.5014C2.04291 62.2589 1.93907 65.7673 4.00016 70.5014C5.32571 72.952 6.37215 73.8325 10.0002 75.501C12.0272 76.2271 13.0373 76.5731 17.5002 77.5014C22.3081 78.2548 25.8402 74.6599 27.5002 71.501Z" fill="black"/>
</g>
<circle cx="105.5" cy="22.5" r="14.5" fill="#1D2A35"/>
<circle cx="26.5" cy="22.5" r="14.5" fill="#1D2A35"/>
<circle cx="106" cy="14" r="4" fill="white"/>
<circle cx="114" cy="22" r="4" fill="white"/>
<circle cx="106" cy="31" r="4" fill="white"/>
<circle cx="97" cy="22" r="4" fill="white"/>
<path d="M103.835 15.25L106 11.5L108.165 15.25H103.835Z" stroke="black" stroke-width="0.5"/>
<circle cx="114" cy="22" r="2.75" stroke="black" stroke-width="0.5"/>
<rect x="95.25" y="20.25" width="3.5" height="3.5" stroke="black" stroke-width="0.5"/>
<line x1="104.208" y1="27.8613" x2="108.208" y2="33.8613" stroke="black" stroke-width="0.5"/>
<line x1="103.792" y1="33.897" x2="107.792" y2="27.8638" stroke="black" stroke-width="0.5"/>
<circle cx="87.5" cy="43.5" r="7.5" fill="#1D2A35"/>
<circle cx="45.5" cy="43.5" r="7.5" fill="#1D2A35"/>
<rect x="42" y="6" width="6" height="11" rx="3" fill="white"/>
<path d="M29 10H23.4667C23.2089 10 23 10.2089 23 10.4667V18.0668C23 18.3432 23.1144 18.6073 23.3161 18.7963L26.0022 21.3145C26.4057 21.6929 27.0397 21.6717 27.4172 21.2673L29.7311 18.7882C29.9039 18.603 30 18.3591 30 18.1058V11C30 10.4477 29.5523 10 29 10Z" fill="white" stroke="black"/>
<path d="M39 20L39 25.5333C39 25.7911 38.7911 26 38.5333 26L30.9332 26C30.6568 26 30.3927 25.8856 30.2037 25.6839L27.6855 22.9978C27.3071 22.5943 27.3283 21.9603 27.7327 21.5828L30.2118 19.2689C30.397 19.0961 30.6409 19 30.8942 19L38 19C38.5523 19 39 19.4477 39 20Z" fill="white" stroke="black"/>
<path d="M29 35L23.4667 35C23.2089 35 23 34.7911 23 34.5333L23 26.9332C23 26.6568 23.1144 26.3927 23.3161 26.2037L26.0022 23.6855C26.4057 23.3071 27.0397 23.3283 27.4172 23.7327L29.7311 26.2118C29.9039 26.397 30 26.6409 30 26.8942L30 34C30 34.5523 29.5523 35 29 35Z" fill="white" stroke="black"/>
<path d="M14 20L14 25.5333C14 25.7911 14.2089 26 14.4667 26L22.0668 26C22.3432 26 22.6073 25.8856 22.7963 25.6839L25.3145 22.9978C25.6929 22.5943 25.6717 21.9603 25.2673 21.5828L22.7882 19.2689C22.603 19.0961 22.3591 19 22.1058 19L15 19C14.4477 19 14 19.4477 14 20Z" fill="white" stroke="black"/>
<path d="M49.5 4.5V18C49.5 20.7614 51.7386 23 54.5 23H78C80.7614 23 83 20.7614 83 18V4.5" stroke="white"/>
<rect x="85" y="6" width="6" height="11" rx="3" fill="white"/>
<path d="M60 41H65.5416C66.0709 41 66.5 41.4291 66.5 41.9584V41.9584C66.5 42.5191 66.0227 42.9611 65.4633 42.9229C63.7465 42.8055 60.5 42.6322 60.5 43C60.5 43.5 60.5 46 60.5 46" stroke="#FFFDFD"/>
<path d="M74 41H71.8049C70.622 41 69.7434 42.0953 70 43.25V43.25C70.2566 44.4047 69.378 45.5 68.1951 45.5H65.5" stroke="#FFFDFD"/>
<defs>
<filter id="filter0_d_354_41" x="0.342773" y="0.949219" width="136.271" height="84.6543" filterUnits="userSpaceOnUse" color-interpolation-filters="sRGB">
<feFlood flood-opacity="0" result="BackgroundImageFix"/>
<feColorMatrix in="SourceAlpha" type="matrix" values="0 0 0 0 0 0 0 0 0 0 0 0 0 0 0 0 0 0 127 0" result="hardAlpha"/>
<feOffset dx="2" dy="4"/>
<feGaussianBlur stdDeviation="2"/>
<feComposite in2="hardAlpha" operator="out"/>
<feColorMatrix type="matrix" values="0 0 0 0 0 0 0 0 0 0 0 0 0 0 0 0 0 0 0.25 0"/>
<feBlend mode="normal" in2="BackgroundImageFix" result="effect1_dropShadow_354_41"/>
<feBlend mode="normal" in="SourceGraphic" in2="effect1_dropShadow_354_41" result="shape"/>
</filter>
</defs>
</svg>
