<svg width="102" height="169" viewBox="0 0 102 169" fill="none" xmlns="http://www.w3.org/2000/svg">
<path d="M23.2216 55.5464C19.4282 55.1074 16.7066 53.9442 15.0566 52.0566C13.4303 50.1504 12.7633 47.378 13.0555 43.7395C13.0932 43.2284 13.2775 42.8417 13.6085 42.5793C13.9632 42.2983 14.3948 42.1871 14.9034 42.246C15.412 42.3048 15.7975 42.4998 16.0599 42.8308C16.3222 43.1618 16.4452 43.5841 16.4287 44.0976C16.2044 46.7776 16.6244 48.7161 17.6885 49.913C18.7526 51.1099 20.7257 51.8751 23.6078 52.2087L32.7628 53.2681C35.772 53.6164 37.9268 53.2751 39.2273 52.2445C40.5514 51.1951 41.3851 49.1869 41.7284 46.2201C42.0767 43.2108 41.7248 41.0547 40.673 39.7518C39.6448 38.4302 37.626 37.5953 34.6168 37.247L25.9069 36.2391C22.1771 35.8075 19.5439 34.6222 18.0073 32.6834C16.4706 30.7446 15.9169 27.9209 16.3461 24.2123C16.7753 20.5037 17.9487 17.8799 19.8663 16.3408C21.8051 14.8041 24.6289 14.2504 28.3374 14.6796L37.238 15.7096C40.7983 16.1216 43.3447 17.2216 44.8773 19.0097C46.4311 20.8001 47.0742 23.4087 46.8065 26.8353C46.79 27.3488 46.6044 27.7461 46.2498 28.0272C45.9188 28.2896 45.4884 28.3901 44.9586 28.3288C44.4711 28.2724 44.0963 28.0787 43.8339 27.7476C43.5716 27.4166 43.4486 26.9943 43.4651 26.4808C43.6623 24.034 43.2664 22.2593 42.2772 21.157C41.2881 20.0546 39.4796 19.3514 36.8518 19.0473L27.9512 18.0173C25.175 17.696 23.1828 18.0239 21.9745 19.0008C20.7686 19.9565 20.0051 21.8224 19.6838 24.5985C19.3625 27.3747 19.6785 29.3763 20.6318 30.6033C21.6087 31.8116 23.4958 32.5777 26.2932 32.9014L35.003 33.9093C38.9447 34.3655 41.7201 35.6208 43.3293 37.6754C44.9409 39.7089 45.5198 42.6858 45.0661 46.6063C44.6124 50.5268 43.3689 53.2929 41.3355 54.9045C39.3045 56.4949 36.3182 57.062 32.3765 56.6058L23.2216 55.5464ZM4.92865 106.687C3.96294 106.124 3.74149 105.347 4.26431 104.355L24.3461 68.8921C24.7857 68.0625 25.4612 67.7004 26.3724 67.8059L26.5631 67.828C27.4296 67.9497 27.9939 68.4552 28.256 69.3446L39.7078 108.456C40.0114 109.544 39.6289 110.251 38.5602 110.579C37.4728 110.882 36.7866 110.502 36.5016 109.438L33.4326 98.9359L12.6116 96.5264L7.22501 106.05C6.68346 107.018 5.91801 107.231 4.92865 106.687ZM14.3647 93.3468L32.4202 95.4363L25.8571 73.0937L14.3647 93.3468Z" fill="black"/>
<path d="M90.4402 98.059C90.7981 98.5261 90.9405 99.0025 90.8674 99.4882C90.8132 99.9973 90.5185 100.449 89.9832 100.842C88.955 101.634 88.0016 101.522 87.1228 100.506L78.1377 88.7696C77.7396 88.2767 77.5665 87.7863 77.6184 87.2984C77.6725 86.7893 77.9555 86.3474 78.4674 85.9728C79.519 85.1621 80.4937 85.2765 81.3915 86.316L90.4402 98.059ZM69.356 94.7865C64.5829 94.2788 61.1811 92.7799 59.1504 90.2898C57.1432 87.7808 56.3934 84.1397 56.9011 79.3667L58.4581 64.7292C58.9703 59.9137 60.4692 56.5119 62.9547 54.5236C65.4638 52.5164 69.092 51.7867 73.8393 52.3346L81.5081 53.1503C86.2811 53.658 89.6724 55.1558 91.6819 57.6436C93.6913 60.1314 94.4411 63.7725 93.9312 68.5668L92.381 83.1406C91.8733 87.9136 90.3744 91.3155 87.8843 93.3462C85.3965 95.3556 81.766 96.1065 76.9929 95.5988L69.356 94.7865ZM69.8536 90.1089L77.4905 90.9212C79.8028 91.1672 81.6576 91.0748 83.055 90.6442C84.4736 90.2159 85.5404 89.3639 86.2553 88.0884C86.9725 86.7916 87.4552 84.9765 87.7034 82.643L89.2535 68.0692C89.4995 65.7569 89.4072 63.9021 88.9765 62.5047C88.5482 61.0861 87.6856 60.0182 86.3889 59.301C85.1156 58.5649 83.3228 58.0739 81.0105 57.8279L73.3418 57.0122C71.0318 56.745 69.178 56.8268 67.7807 57.2574C66.3855 57.6668 65.3188 58.5187 64.5804 59.8132C63.8655 61.0888 63.3839 62.8933 63.1357 65.2268L61.5787 79.8642C61.3305 82.1977 61.4206 84.0738 61.849 85.4924C62.2796 86.8897 63.1327 87.9459 64.4082 88.6608C65.7049 89.378 67.5201 89.8607 69.8536 90.1089ZM53.9383 146.446C52.3685 146.279 51.6671 145.41 51.834 143.84L55.8482 106.101C56.0152 104.531 56.8836 103.83 58.4534 103.997L73.7909 105.628C79.2428 106.208 83.1051 107.917 85.3777 110.755C87.6526 113.571 88.5 117.705 87.9201 123.157L86.7761 133.913C86.1962 139.364 84.4969 143.238 81.6783 145.535C78.8831 147.812 74.7489 148.659 69.2758 148.077L53.9383 146.446ZM56.7587 142.015L69.7733 143.399C72.5311 143.693 74.7639 143.576 76.4719 143.05C78.1798 142.524 79.4706 141.481 80.3444 139.922C81.2182 138.363 81.8029 136.194 82.0985 133.415L83.2425 122.66C83.5359 119.902 83.4194 117.669 82.8931 115.961C82.3668 114.253 81.3241 112.962 79.7651 112.089C78.2084 111.194 76.0511 110.599 73.2934 110.306L60.2788 108.922L56.7587 142.015Z" fill="black"/>
<path d="M50.4998 1.00118L56.9999 6.50144L42.4999 166.001L34.9999 168.001L50.4998 1.00118Z" fill="#DCD7C5"/>
<path d="M53.9998 4.00047L58.9998 8.00047L45.4998 165.001L39.4998 167.001L53.9998 4.00047Z" fill="#6E381D"/>
<path d="M57.5104 6.87422L62.0101 10.8769L48.9999 163.999L42.9997 166.001L57.5104 6.87422Z" fill="#F2F2F2"/>
</svg>
