<svg width="127" height="108" viewBox="0 0 127 108" fill="none" xmlns="http://www.w3.org/2000/svg">
<ellipse cx="25" cy="39.5" rx="9" ry="8.5" fill="white"/>
<ellipse cx="59" cy="38.5" rx="9" ry="8.5" fill="white"/>
<ellipse cx="43" cy="63.5" rx="9" ry="8.5" fill="white"/>
<g filter="url(#filter0_d_372_2)">
<circle cx="59" cy="39" r="7" fill="#C4C4C4"/>
</g>
<g filter="url(#filter1_d_372_2)">
<path fill-rule="evenodd" clip-rule="evenodd" d="M58.0092 26.4997C51.6169 26.2971 48.2926 25.7779 43.0181 24C41.1683 23.1532 40.1772 22.5168 38.5181 21C36.1002 19.2881 34.4587 19.0148 31.0181 19C27.1498 19.3529 25.053 20.0318 21.5181 21.5C19.4564 22.5562 18.5086 23.0899 17.0181 24C15.2292 25.096 14.3473 25.8258 13.0181 27.5C10.147 31.8957 8.99282 34.3061 7.51807 38.5C4.92535 45.7829 3.58132 49.906 2.01807 57.5C0.566004 65.0489 -0.123227 69.2616 0.0180711 76.5C0.0331421 76.9041 0.0474115 77.2962 0.0613023 77.6779L0.0613123 77.6782C0.252251 82.9254 0.371662 86.207 1.51807 91.5C2.22886 93.7377 2.79611 94.9085 4.01807 97C5.64484 99.4647 9.12 99.522 14.0181 98C17.3199 96.7947 19.184 95.45 22.5181 92.5C24.5615 90.4576 25.9396 89.2338 28.3536 87.0902L29.0181 86.5C32.991 83.4808 35.7549 82.0502 42.0181 80C47.9126 78.6523 51.4823 78.4651 58 78.4999V78.5L58.0092 78.5L58.0181 78.5V78.4999C64.6481 78.466 69.2764 78.8907 75.2708 80.2213C81.64 82.2453 84.4507 83.6576 88.4908 86.6383L89.1662 87.2206C91.6213 89.3371 93.0228 90.5452 95.1008 92.5617C98.4914 95.474 100.387 96.8016 103.745 97.9915C108.726 99.4941 112.26 99.4375 113.914 97.0043C115.157 94.9394 115.733 93.7836 116.456 91.5745C117.622 86.3491 117.744 83.1094 117.938 77.9291L117.938 77.9186L117.939 77.8826L117.961 77.3049L117.982 76.766C118.125 69.62 117.424 65.461 115.948 58.0085C114.358 50.5114 112.991 46.4409 110.355 39.2511C108.855 35.1107 107.681 32.7311 104.762 28.3915C103.41 26.7387 102.513 26.0182 100.694 24.9362C99.1782 24.0377 98.2143 23.5108 96.1178 22.4681C92.523 21.0186 90.3907 20.3484 86.457 20C82.9582 20.0146 81.2888 20.2844 78.8301 21.9745C77.1428 23.4719 76.135 24.1002 74.2539 24.9362C70.0106 26.3247 66.3832 26.3702 61.8339 26.4272C60.6327 26.4423 59.3673 26.4581 58.0092 26.4997ZM34 40C34 44.9706 29.9706 49 25 49C20.0294 49 16 44.9706 16 40C16 35.0294 20.0294 31 25 31C29.9706 31 34 35.0294 34 40ZM33 40C33 44.4183 29.4183 48 25 48C20.5817 48 17 44.4183 17 40C17 35.5817 20.5817 32 25 32C29.4183 32 33 35.5817 33 40ZM43 74C49.0751 74 54 69.0751 54 63C54 56.9249 49.0751 52 43 52C36.9249 52 32 56.9249 32 63C32 69.0751 36.9249 74 43 74ZM43 72C47.9706 72 52 67.9706 52 63C52 58.0294 47.9706 54 43 54C38.0294 54 34 58.0294 34 63C34 67.9706 38.0294 72 43 72ZM48.6225 66.5142C47.9694 67.6131 47.0203 68.4275 45.9373 68.9162L46.3492 69.8269C47.6558 69.2359 48.7495 68.2579 49.4821 67.0251L48.6225 66.5142ZM48.3151 58.9136C47.5558 57.9998 46.5181 57.3019 45.2849 56.9649L45.5485 56.0003C46.9319 56.3783 48.1658 57.172 49.0833 58.2741L48.3151 58.9136ZM37.7682 58.7201C38.5865 57.738 39.652 57.0834 40.7986 56.7717L40.5354 55.8074C39.152 56.1849 37.9178 56.9783 36.9999 58.0801L37.7682 58.7201ZM37.4084 66.2455C37.9964 67.278 38.8961 68.1465 40.0513 68.6938L39.6232 69.5975C38.3272 68.9836 37.251 67.9864 36.5403 66.7409L37.4084 66.2455ZM93 57C95.7614 57 98 54.7614 98 52C98 49.2386 95.7614 47 93 47C90.2386 47 88 49.2386 88 52C88 54.7614 90.2386 57 93 57ZM93 56C95.2092 56 97 54.2091 97 52C97 49.7909 95.2092 48 93 48C90.7909 48 89 49.7909 89 52C89 54.2091 90.7909 56 93 56ZM106 43C106 45.7614 103.761 48 101 48C98.2386 48 96 45.7614 96 43C96 40.2386 98.2386 38 101 38C103.761 38 106 40.2386 106 43ZM105 43C105 45.2091 103.209 47 101 47C98.7909 47 97 45.2091 97 43C97 40.7909 98.7909 39 101 39C103.209 39 105 40.7909 105 43ZM93 39C95.7614 39 98 36.7614 98 34C98 31.2386 95.7614 29 93 29C90.2386 29 88 31.2386 88 34C88 36.7614 90.2386 39 93 39ZM93 38C95.2092 38 97 36.2091 97 34C97 31.7909 95.2092 30 93 30C90.7909 30 89 31.7909 89 34C89 36.2091 90.7909 38 93 38ZM89 43C89 45.7614 86.7614 48 84 48C81.2386 48 79 45.7614 79 43C79 40.2386 81.2386 38 84 38C86.7614 38 89 40.2386 89 43ZM88 43C88 45.2091 86.2092 47 84 47C81.7909 47 80 45.2091 80 43C80 40.7909 81.7909 39 84 39C86.2092 39 88 40.7909 88 43ZM73 70C77.9706 70 82 65.9706 82 61C82 56.0294 77.9706 52 73 52C68.0295 52 64 56.0294 64 61C64 65.9706 68.0295 70 73 70ZM73 68C76.866 68 80 64.866 80 61C80 57.134 76.866 54 73 54C69.134 54 66 57.134 66 61C66 64.866 69.134 68 73 68ZM50.8772 40.0168C51.275 43.654 54.1206 46.5818 57.7652 47.0665C57.3615 47.6161 56.6836 47.9087 55.981 47.6742C54.6319 47.2241 53.3993 46.4573 52.3921 45.4265C51.3849 44.3956 50.6471 43.1455 50.2284 41.7862C50.0104 41.0785 50.3186 40.4077 50.8772 40.0168ZM57.7495 30.7224C54.0939 31.1153 51.1756 33.9707 50.6865 37.5967C50.1379 37.1919 49.8466 36.5135 50.0824 35.8115C50.5351 34.4633 51.3041 33.2321 52.3369 32.2268C53.3696 31.2216 54.6212 30.4861 55.9812 30.0699C56.6894 29.8533 57.3598 30.1628 57.7495 30.7224ZM67.063 37.5967C66.5739 33.9707 63.6556 31.1153 60 30.7224C60.3898 30.1628 61.0602 29.8533 61.7683 30.0699C63.1284 30.4861 64.3799 31.2216 65.4126 32.2268C66.4454 33.2321 67.2145 34.4633 67.6672 35.8115C67.9029 36.5135 67.6117 37.1919 67.063 37.5967ZM60 46.8743C63.6556 46.4814 66.5739 43.626 67.063 40C67.6117 40.4047 67.9029 41.0832 67.6672 41.7851C67.2145 43.1334 66.4454 44.3646 65.4126 45.3699C64.3799 46.3751 63.1284 47.1106 61.7683 47.5267C61.0602 47.7434 60.3898 47.4339 60 46.8743Z" fill="black"/>
</g>
<g filter="url(#filter2_di_372_2)">
<path fill-rule="evenodd" clip-rule="evenodd" d="M66 39C66 40.4086 65.584 41.7199 64.8681 42.818C63.1675 40.4789 61.7719 38.8434 60.5981 37.6666C60.6192 37.6473 60.6403 37.6282 60.6614 37.609C62.297 36.1209 63.5993 34.936 63.8691 33.9709C65.1832 35.2434 66 37.0263 66 39ZM63.1669 33.3748C62.0027 32.511 60.561 32 59 32C57.3274 32 55.7918 32.5866 54.5878 33.5654C55.0693 33.9166 55.558 34.1575 56.1003 34.4249C56.9551 34.8464 57.943 35.3335 59.246 36.4215C60.26 35.407 61.0951 34.8513 61.8275 34.3641C62.3115 34.042 62.7507 33.7498 63.1669 33.3748ZM58.0112 37.7951C57.9096 37.723 57.809 37.6518 57.7096 37.5814C55.7536 36.1968 54.2353 35.122 54.015 34.0857C52.769 35.3496 52 37.085 52 39C52 40.9173 52.7708 42.6546 54.0195 43.9188C55.5872 41.0848 56.8952 39.1593 58.0112 37.7951ZM59.3828 38.7836C57.7351 40.3248 55.9484 42.1504 54.5977 44.3292L54.1147 44.0134C55.3761 45.2427 57.0996 46 59 46C61.1918 46 63.1483 44.9926 64.4319 43.4157C62.9099 41.5361 61.0815 40.0379 59.3828 38.7836Z" fill="#1AC96B" fill-opacity="0.88" shape-rendering="crispEdges"/>
</g>
<path fill-rule="evenodd" clip-rule="evenodd" d="M74.7155 11.1857C75.4169 12.8792 75.8304 14.6756 75.9412 16.5006C75.9746 17.0519 75.5237 17.5 74.9715 17.5V17.5C74.4192 17.5 73.975 17.0508 73.9375 16.4998C73.4237 8.95824 67.1434 3 59.4715 3C51.7995 3 45.5192 8.95824 45.0054 16.4998C44.9679 17.0508 44.5237 17.5 43.9715 17.5V17.5C43.4192 17.5 42.9683 17.0519 43.0017 16.5006C43.1125 14.6756 43.526 12.8792 44.2274 11.1857C45.0566 9.18385 46.272 7.36491 47.8042 5.83274C49.3364 4.30057 51.1553 3.08519 53.1572 2.25599C55.1591 1.42679 57.3046 1 59.4715 1C61.6383 1 63.7839 1.42678 65.7857 2.25599C67.7876 3.08519 69.6066 4.30057 71.1387 5.83274C72.6709 7.3649 73.8863 9.18385 74.7155 11.1857Z" fill="#C4C4C4"/>
<path d="M44.2274 11.1857L43.3036 10.803L43.3036 10.803L44.2274 11.1857ZM47.8042 5.83274L48.5113 6.53985L47.8042 5.83274ZM53.1572 2.25599L52.7745 1.33211L53.1572 2.25599ZM65.7857 2.25599L66.1684 1.33211V1.33211L65.7857 2.25599ZM71.1387 5.83274L71.8458 5.12563V5.12563L71.1387 5.83274ZM45.0054 16.4998L44.0077 16.4318L45.0054 16.4998ZM73.9375 16.4998L74.9352 16.4318L73.9375 16.4998ZM75.9412 16.5006L76.9393 16.44L75.9412 16.5006ZM76.9393 16.44C76.8219 14.5044 76.3833 12.5992 75.6393 10.803L73.7916 11.5684C74.4505 13.1593 74.839 14.8467 74.943 16.5612L76.9393 16.44ZM59.4715 4C66.6139 4 72.4615 9.54729 72.9398 16.5678L74.9352 16.4318C74.3859 8.36919 67.6729 2 59.4715 2V4ZM46.0031 16.5678C46.4814 9.54729 52.329 4 59.4715 4V2C51.27 2 44.557 8.36919 44.0077 16.4318L46.0031 16.5678ZM43.3036 10.803C42.5596 12.5992 42.121 14.5044 42.0036 16.44L43.9999 16.5612C44.1039 14.8467 44.4924 13.1593 45.1513 11.5684L43.3036 10.803ZM47.0971 5.12563C45.4721 6.75066 44.183 8.67984 43.3036 10.803L45.1513 11.5684C45.9303 9.68786 47.072 7.97915 48.5113 6.53985L47.0971 5.12563ZM52.7745 1.33211C50.6513 2.21157 48.7221 3.50061 47.0971 5.12563L48.5113 6.53985C49.9506 5.10054 51.6593 3.95882 53.5399 3.17987L52.7745 1.33211ZM59.4715 0C57.1733 0 54.8977 0.452651 52.7745 1.33211L53.5399 3.17987C55.4204 2.40092 57.436 2 59.4715 2V0ZM66.1684 1.33211C64.0452 0.452651 61.7696 0 59.4715 0V2C61.5069 2 63.5225 2.40092 65.403 3.17987L66.1684 1.33211ZM71.8458 5.12563C70.2208 3.50061 68.2916 2.21157 66.1684 1.33211L65.403 3.17987C67.2836 3.95881 68.9923 5.10054 70.4316 6.53984L71.8458 5.12563ZM75.6393 10.803C74.7599 8.67984 73.4708 6.75066 71.8458 5.12563L70.4316 6.53984C71.8709 7.97915 73.0126 9.68786 73.7916 11.5684L75.6393 10.803ZM44.0077 16.4318C44.0059 16.4583 43.9943 16.4798 43.9813 16.4925C43.9755 16.4983 43.9715 16.5001 43.9711 16.5002C43.9709 16.5003 43.9712 16.5002 43.9718 16.5001C43.9725 16.4999 43.9725 16.5 43.9715 16.5L43.9715 18.5C45.0932 18.5 45.9329 17.5989 46.0031 16.5678L44.0077 16.4318ZM74.9715 16.5C74.9704 16.5 74.9704 16.4999 74.9711 16.5001C74.9717 16.5002 74.972 16.5003 74.9718 16.5002C74.9714 16.5001 74.9674 16.4983 74.9616 16.4925C74.9486 16.4798 74.937 16.4583 74.9352 16.4318L72.9398 16.5678C73.0101 17.5989 73.8497 18.5 74.9715 18.5V16.5ZM43.9715 16.5C43.969 16.5 43.9738 16.4996 43.9807 16.5066C43.9844 16.5104 43.9899 16.5175 43.9943 16.5289C43.9991 16.5413 44.0004 16.5534 43.9999 16.5612L42.0036 16.44C41.9328 17.6066 42.8841 18.5 43.9715 18.5L43.9715 16.5ZM74.943 16.5612C74.9425 16.5534 74.9439 16.5413 74.9487 16.5289C74.953 16.5175 74.9585 16.5104 74.9622 16.5066C74.9691 16.4996 74.974 16.5 74.9715 16.5V18.5C76.0588 18.5 77.0101 17.6066 76.9393 16.44L74.943 16.5612Z" fill="black"/>
<path fill-rule="evenodd" clip-rule="evenodd" d="M69.1724 13.7905C69.6225 14.9288 69.8862 16.1369 69.9541 17.3639C69.9735 17.7149 69.6867 18 69.3353 18H68.6992C68.699 18 68.6989 17.9999 68.6989 17.9997V17.9997C68.6989 12.6609 64.5677 8.33301 59.4716 8.33301C54.3755 8.33301 50.2444 12.6609 50.2444 17.9997V17.9997C50.2444 17.9999 50.2442 18 50.244 18H49.608C49.2565 18 48.9698 17.7149 48.9892 17.364C49.0571 16.1369 49.3208 14.9288 49.7709 13.7905C50.2986 12.4559 51.072 11.2433 52.047 10.2218C53.022 9.20038 54.1795 8.39013 55.4535 7.83733C56.7274 7.28452 58.0928 7 59.4716 7C60.8505 7 62.2159 7.28452 63.4898 7.83732C64.7637 8.39013 65.9212 9.20038 66.8963 10.2218C67.8713 11.2433 68.6447 12.4559 69.1724 13.7905Z" fill="#C4C4C4"/>
<path d="M69.1724 13.7905L68.2424 14.1582V14.1582L69.1724 13.7905ZM49.7709 13.7905L50.7009 14.1582L49.7709 13.7905ZM52.047 10.2218L51.3237 9.53135L51.3237 9.53135L52.047 10.2218ZM63.4898 7.83732L63.8879 6.91997V6.91997L63.4898 7.83732ZM69.9541 17.3639L68.9556 17.4191L69.9541 17.3639ZM70.9526 17.3087C70.8788 15.9753 70.5922 14.6617 70.1023 13.4228L68.2424 14.1582C68.6527 15.1959 68.8936 16.2984 68.9556 17.4191L70.9526 17.3087ZM68.6992 19H69.3353V17H68.6992V19ZM59.4716 9.33301C63.9721 9.33301 67.6989 13.1689 67.6989 17.9997H69.6989C69.6989 12.153 65.1633 7.33301 59.4716 7.33301V9.33301ZM51.2444 17.9997C51.2444 13.1689 54.9712 9.33301 59.4716 9.33301V7.33301C53.7799 7.33301 49.2444 12.153 49.2444 17.9997H51.2444ZM49.608 19H50.244V17H49.608V19ZM48.841 13.4228C48.3511 14.6617 48.0645 15.9753 47.9907 17.3088L49.9877 17.4192C50.0496 16.2984 50.2905 15.1959 50.7009 14.1582L48.841 13.4228ZM51.3237 9.53135C50.2581 10.6476 49.4153 11.9703 48.841 13.4228L50.7009 14.1582C51.1819 12.9415 51.8859 11.8389 52.7704 10.9123L51.3237 9.53135ZM55.0554 6.91997C53.6569 7.52684 52.3893 8.41499 51.3237 9.53135L52.7704 10.9123C53.6548 9.98577 54.7022 9.25342 55.8515 8.75468L55.0554 6.91997ZM59.4716 6C57.9548 6 56.454 6.31305 55.0554 6.91997L55.8515 8.75468C57.0007 8.25599 58.2307 8 59.4716 8V6ZM63.8879 6.91997C62.4893 6.31305 60.9885 6 59.4716 6V8C60.7126 8 61.9425 8.25599 63.0917 8.75468L63.8879 6.91997ZM67.6196 9.53135C66.554 8.41499 65.2864 7.52684 63.8879 6.91997L63.0917 8.75468C64.2411 9.25342 65.2885 9.98577 66.1729 10.9123L67.6196 9.53135ZM70.1023 13.4228C69.528 11.9703 68.6851 10.6476 67.6196 9.53135L66.1729 10.9123C67.0574 11.8389 67.7614 12.9415 68.2424 14.1582L70.1023 13.4228ZM49.2444 17.9997C49.2444 17.4474 49.6921 17 50.244 17V19C50.7963 19 51.2444 18.5523 51.2444 17.9997H49.2444ZM49.608 17C49.7932 17 50.002 17.1604 49.9877 17.4192L47.9907 17.3088C47.9376 18.2693 48.7199 19 49.608 19V17ZM68.6992 17C69.2513 17 69.6989 17.4476 69.6989 17.9997H67.6989C67.6989 18.5521 68.1468 19 68.6992 19V17ZM68.9556 17.4191C68.9413 17.1604 69.15 17 69.3353 17V19C70.2234 19 71.0057 18.2693 70.9526 17.3087L68.9556 17.4191Z" fill="black"/>
<circle cx="59.4717" cy="18.5" r="3.5" fill="#0C0606"/>
<defs>
<filter id="filter0_d_372_2" x="52" y="32" width="23" height="22" filterUnits="userSpaceOnUse" color-interpolation-filters="sRGB">
<feFlood flood-opacity="0" result="BackgroundImageFix"/>
<feColorMatrix in="SourceAlpha" type="matrix" values="0 0 0 0 0 0 0 0 0 0 0 0 0 0 0 0 0 0 127 0" result="hardAlpha"/>
<feOffset dx="5" dy="4"/>
<feGaussianBlur stdDeviation="2"/>
<feComposite in2="hardAlpha" operator="out"/>
<feColorMatrix type="matrix" values="0 0 0 0 0 0 0 0 0 0 0 0 0 0 0 0 0 0 0.25 0"/>
<feBlend mode="normal" in2="BackgroundImageFix" result="effect1_dropShadow_372_2"/>
<feBlend mode="normal" in="SourceGraphic" in2="effect1_dropShadow_372_2" result="shape"/>
</filter>
<filter id="filter1_d_372_2" x="0" y="19" width="127" height="88.0215" filterUnits="userSpaceOnUse" color-interpolation-filters="sRGB">
<feFlood flood-opacity="0" result="BackgroundImageFix"/>
<feColorMatrix in="SourceAlpha" type="matrix" values="0 0 0 0 0 0 0 0 0 0 0 0 0 0 0 0 0 0 127 0" result="hardAlpha"/>
<feOffset dx="5" dy="4"/>
<feGaussianBlur stdDeviation="2"/>
<feComposite in2="hardAlpha" operator="out"/>
<feColorMatrix type="matrix" values="0 0 0 0 0 0 0 0 0 0 0 0 0 0 0 0 0 0 0.25 0"/>
<feBlend mode="normal" in2="BackgroundImageFix" result="effect1_dropShadow_372_2"/>
<feBlend mode="normal" in="SourceGraphic" in2="effect1_dropShadow_372_2" result="shape"/>
</filter>
<filter id="filter2_di_372_2" x="48" y="32" width="22" height="22" filterUnits="userSpaceOnUse" color-interpolation-filters="sRGB">
<feFlood flood-opacity="0" result="BackgroundImageFix"/>
<feColorMatrix in="SourceAlpha" type="matrix" values="0 0 0 0 0 0 0 0 0 0 0 0 0 0 0 0 0 0 127 0" result="hardAlpha"/>
<feOffset dy="4"/>
<feGaussianBlur stdDeviation="2"/>
<feComposite in2="hardAlpha" operator="out"/>
<feColorMatrix type="matrix" values="0 0 0 0 0 0 0 0 0 0 0 0 0 0 0 0 0 0 0.25 0"/>
<feBlend mode="normal" in2="BackgroundImageFix" result="effect1_dropShadow_372_2"/>
<feBlend mode="normal" in="SourceGraphic" in2="effect1_dropShadow_372_2" result="shape"/>
<feColorMatrix in="SourceAlpha" type="matrix" values="0 0 0 0 0 0 0 0 0 0 0 0 0 0 0 0 0 0 127 0" result="hardAlpha"/>
<feOffset dx="7"/>
<feGaussianBlur stdDeviation="1.5"/>
<feComposite in2="hardAlpha" operator="arithmetic" k2="-1" k3="1"/>
<feColorMatrix type="matrix" values="0 0 0 0 0 0 0 0 0 0 0 0 0 0 0 0 0 0 0.49 0"/>
<feBlend mode="normal" in2="shape" result="effect2_innerShadow_372_2"/>
</filter>
</defs>
</svg>
