<svg width="55" height="55" viewBox="0 0 55 55" fill="none" xmlns="http://www.w3.org/2000/svg">
<path fill-rule="evenodd" clip-rule="evenodd" d="M27.5 55C42.6878 55 55 42.6878 55 27.5C55 12.3122 42.6878 0 27.5 0C12.3122 0 0 12.3122 0 27.5C0 42.6878 12.3122 55 27.5 55ZM20.9999 7.5L26.9999 19L22.9999 21C22.3584 21.5981 22.2627 22.2499 22.4999 23.5C23.0259 25.8641 23.4868 27.1926 24.4999 29.5C25.5942 32.0683 26.5661 33.3481 28.9999 35.5C30.0812 36.2558 30.7507 36.1739 31.9999 35.5L34.4999 34L40.4999 45.5L35.4999 48C33.2084 48.8056 31.996 48.768 29.9999 47.5C27.4493 45.6783 26.4225 44.7093 24.9999 43C22.9292 40.317 21.8524 38.6522 19.9999 35.5C18.2563 32.3303 17.3943 30.4387 15.9999 27C14.6993 23.6011 14.135 21.7544 13.4999 18.5C13.3691 17.199 13.3772 16.4129 13.4999 15C13.6961 13.9293 13.8064 13.546 13.9999 13C14.9002 11.0898 15.809 10.2115 17.9999 9L20.9999 7.5Z" fill="#FF6000"/>
</svg>
